<svg 
 xmlns="http://www.w3.org/2000/svg"
 xmlns:xlink="http://www.w3.org/1999/xlink"
 width="25px" height="27px">
<path fill-rule="evenodd"  fill="rgb(0, 0, 0)"
 d="M24.852,26.136 L17.574,18.259 C19.430,16.322 20.580,13.651 20.580,10.705 C20.580,4.802 15.966,0.000 10.293,0.000 C4.621,0.000 0.007,4.802 0.007,10.705 C0.007,16.608 4.621,21.410 10.293,21.410 C12.783,21.410 15.068,20.483 16.849,18.947 L24.146,26.843 C24.242,26.947 24.370,27.000 24.499,27.000 C24.621,27.000 24.743,26.952 24.838,26.857 C25.033,26.662 25.039,26.339 24.852,26.136 ZM10.293,20.390 C5.161,20.390 0.986,16.046 0.986,10.705 C0.986,5.364 5.161,1.020 10.293,1.020 C15.426,1.020 19.601,5.364 19.601,10.705 C19.601,16.046 15.425,20.390 10.293,20.390 Z"/>
</svg>